<svg width="72" height="73" viewBox="0 0 72 73" fill="none" xmlns="http://www.w3.org/2000/svg">
<g id="Group 10">
<path id="Vector" d="M70.043 28.8403C69.2275 28.0188 68.0232 27.8222 67.0215 28.2504L64.9655 26.179L65.0106 26.1336C65.3599 25.7816 65.5522 25.3135 65.5522 24.816C65.5522 24.3181 65.3598 23.8501 65.0104 23.4982L54.2533 12.6593C53.8425 12.2455 53.1765 12.2455 52.7658 12.6593C52.355 13.0734 52.355 13.7443 52.7658 14.1583L63.3432 24.8158C62.0892 26.0793 61.3335 26.8409 48.7603 39.5093C45.9911 36.7191 49.8555 40.6128 32.5864 23.213C36.177 19.5953 43.6265 12.0891 47.1693 8.51942L49.2152 10.5811C49.626 10.9949 50.2921 10.9949 50.7028 10.5811C51.1136 10.167 51.1136 9.49606 50.7028 9.08229L48.4769 6.83944C47.7558 6.11293 46.5825 6.11279 45.8613 6.83944L45.8163 6.88481L43.7616 4.81451C44.1807 3.82388 44.0061 2.60657 43.1749 1.76899L42.2248 0.811847C41.7057 0.288409 41.0153 0.00012207 40.2808 0.00012207C39.5462 0.00012207 38.8558 0.288409 38.3365 0.811565L24.9365 14.3131C24.4171 14.8364 24.1311 15.5321 24.1311 16.2721C24.1311 17.012 24.4173 17.7077 24.9365 18.231L25.8866 19.1882C26.4059 19.7115 27.0964 19.9997 27.8309 19.9997C28.2076 19.9997 28.5729 19.9239 28.9093 19.7793L30.9642 21.8497L30.9193 21.8949C30.5699 22.2468 30.3775 22.7149 30.3775 23.2127C30.3775 23.7103 30.5699 24.1783 30.9193 24.5305L36.4489 30.1019L33.431 33.1427L33.3178 33.0286C32.947 32.6548 32.4538 32.4489 31.9293 32.4489C31.4047 32.4489 30.9116 32.6548 30.5409 33.0285L28.7161 34.8673C28.0609 35.5274 27.9759 36.5183 28.4062 37.2611L26.3538 39.127C25.9225 39.519 25.8882 40.1894 26.2775 40.624C26.6668 41.0585 27.3317 41.093 27.7632 40.7009L29.8479 38.8055L33.2851 42.2688L9.52181 68.8053C7.90439 70.6117 5.09369 70.7197 3.35229 68.9648C1.63389 67.2336 1.69364 64.4004 3.51064 62.7487L24.0811 44.0481C24.5124 43.6561 24.5466 42.9857 24.1574 42.5511C23.7683 42.1168 23.1031 42.0822 22.6717 42.4742L2.10136 61.1749C-0.593629 63.625 -0.722102 67.8573 1.86475 70.4636C4.43295 73.0517 8.634 72.9611 11.0838 70.2252L34.818 43.7208C35.5727 44.1626 36.5531 44.0542 37.1932 43.4093L39.0182 41.5705C39.389 41.1967 39.5934 40.7 39.5934 40.1716C39.5934 39.6432 39.389 39.1464 39.0182 38.7727L38.9049 38.6585L41.9227 35.6178L47.4524 41.1894C48.1736 41.9159 49.3468 41.9159 50.068 41.1894L50.113 41.144L52.1689 43.2154C51.7439 44.2246 51.939 45.4381 52.7543 46.2597L53.7044 47.2171C54.7766 48.2972 56.5207 48.2972 57.5928 47.2171L70.993 33.7154C72.0649 32.6352 72.0649 30.8778 70.993 29.7974L70.043 28.8403ZM27.3742 17.6896L26.424 16.7322C26.1717 16.4781 26.1716 16.0665 26.424 15.8122L39.8242 2.31051C40.0768 2.05614 40.4848 2.05614 40.7374 2.31066L41.6875 3.26794C41.9398 3.52203 41.94 3.93368 41.6875 4.18791C41.5722 4.30407 28.3015 17.6755 28.2874 17.6896C28.0347 17.944 27.6267 17.9437 27.3742 17.6896ZM30.5364 18.4214L42.4136 6.45407L44.3288 8.38376L32.4516 20.3511L30.5364 18.4214ZM35.8049 41.8105C35.7803 41.7856 30.3166 36.2806 30.3025 36.2665L31.929 34.6276C32.6258 35.3297 36.6271 39.3612 37.4315 40.1716L35.8049 41.8105ZM37.4172 37.1596L34.9183 34.6419L37.9361 31.6012L40.435 34.119L37.4172 37.1596ZM63.4779 27.6778L65.393 29.6075L53.5157 41.5748L51.6006 39.6451L63.4779 27.6778ZM69.5056 32.2167L56.1054 45.7183C55.8538 45.9721 55.4439 45.9721 55.1922 45.7183L54.2421 44.7612C53.9903 44.5074 53.9903 44.0946 54.2421 43.8409L54.257 43.8259C77.6085 20.2975 54.741 43.3384 67.6422 30.3393C67.8941 30.0857 68.3037 30.0858 68.5554 30.3393L69.5054 31.2965C69.7573 31.5503 69.7573 31.9631 69.5056 32.2167Z" fill="#B68C5A"/>
<path id="Vector_2" d="M34.8597 65.4022V65.8247H34.6563C32.6172 65.8247 30.9582 67.4962 30.9582 69.5507V70.9236C30.9582 71.7058 31.5898 72.3421 32.3661 72.3421H70.3901C71.1664 72.3421 71.798 71.7058 71.798 70.9236V69.5507C71.798 67.4962 70.139 65.8247 68.0999 65.8247H67.8966V65.4022C67.8966 62.7285 66.4704 60.3841 64.3443 59.1008C64.7718 58.5828 65.0291 57.9173 65.0291 57.1925C65.0291 55.544 63.6981 54.2029 62.0619 54.2029H40.6944C39.0582 54.2029 37.7272 55.544 37.7272 57.1925C37.7272 57.9173 37.9846 58.5826 38.4121 59.1008C36.2858 60.384 34.8597 62.7285 34.8597 65.4022ZM65.7928 65.4022V65.8247H64.1559C63.575 65.8247 63.104 66.2991 63.104 66.8846C63.104 67.4701 63.575 67.9445 64.1559 67.9445H68.0999C68.979 67.9445 69.6941 68.665 69.6941 69.5507V70.2224H33.062V69.5507C33.062 68.6649 33.7772 67.9445 34.6563 67.9445H59.2471C59.8281 67.9445 60.299 67.4701 60.299 66.8846C60.299 66.2991 59.8281 65.8247 59.2471 65.8247H36.9635V65.4022C36.9635 62.5238 39.2875 60.1822 42.1442 60.1822H60.6121C63.4688 60.1821 65.7928 62.5238 65.7928 65.4022ZM40.6944 58.0623C40.2182 58.0623 39.831 57.672 39.831 57.1925C39.831 56.713 40.2182 56.3227 40.6944 56.3227H62.062C62.5382 56.3227 62.9255 56.713 62.9255 57.1925C62.9255 57.672 62.5382 58.0623 62.062 58.0623H40.6944Z" fill="#B68C5A"/>
</g>
</svg>
